<?xml version="1.0" encoding="UTF-8"?>
<svg width="600px" height="453px" viewBox="0 0 600 453" version="1.1" xmlns="http://www.w3.org/2000/svg" xmlns:xlink="http://www.w3.org/1999/xlink">
    <title>cabin</title>
    <g id="Page-1" stroke="none" stroke-width="1" fill="none" fill-rule="evenodd">
        <g id="cabin" fill-rule="nonzero">
            <path d="M203.07,406.77063 C203.109367,406.969848 203.159439,407.1668 203.22,407.36063 L203.07,407.36063 L203.07,406.77063 Z" id="Path" fill="#000000" opacity="0.5"></path>
            <path d="M445.89,406.77063 L445.89,407.36063 L445.74,407.36063 C445.800537,407.166794 445.850609,406.969843 445.89,406.77063 L445.89,406.77063 Z" id="Path" fill="#000000" opacity="0.5"></path>
            <path d="M449.46,382.92066 L449.46,384.92066 L449.21,384.92066 C449.23,384.67066 449.25,384.42066 449.26,384.17066 C449.28,383.75066 449.3,383.34066 449.32,382.92066 L449.46,382.92066 Z" id="Path" fill="#000000" opacity="0.5"></path>
            <path d="M449.46,371.69061 L449.46,373.69061 L449.41,373.69061 C449.4,373.02061 449.37,372.36066 449.34006,371.69061 L449.46,371.69061 Z" id="Path" fill="#000000" opacity="0.5"></path>
            <path d="M446.4,349.25067 L446.4,349.43067 C446.39,349.37067 446.37,349.31067 446.36,349.25067 L446.4,349.25067 Z" id="Path" fill="#000000" opacity="0.5"></path>
            <path d="M209.96,326.80066 L210,326.80066 C209.990892,326.832365 209.977431,326.862654 209.96,326.89066 L209.96,326.80066 Z" id="Path" fill="#000000" opacity="0.5"></path>
            <path d="M439,326.80066 L439,326.90066 C438.985343,326.866359 438.968647,326.832966 438.95,326.80066 L439,326.80066 Z" id="Path" fill="#000000" opacity="0.5"></path>
            <rect id="Rectangle" fill="#E6E6E6" x="280" y="320" width="59.68421" height="132.24798"></rect>
            <ellipse id="Oval" fill="#3F3D56" cx="292.12146" cy="402.15252" rx="6.12146" ry="5.15252"></ellipse>
            <path d="M308.04031,338 L310.56697,338 C318.321219,338 324.60728,344.286061 324.60728,352.04031 L324.60728,371.92074 L294,371.92074 L294,352.04031 C294,344.286061 300.286061,338 308.04031,338 L308.04031,338 Z" id="Path" fill="#3F3D56"></path>
            <circle id="Oval" fill-opacity="0.862789554" fill="#C08E2C" cx="163.5" cy="187.5" r="163.5"></circle>
            <circle id="Oval" fill-opacity="0.898574082" fill="#25477C" cx="455" cy="145" r="145"></circle>
            <path d="M285.12148,78.29484 C316.620827,151.977332 290.081402,237.630322 222.439433,280.594056 C154.797463,323.557789 65.9867416,311.171042 12.68214,251.33846 C38.1402942,310.897811 96.3553976,349.815493 161.123131,350.57352 C225.890864,351.331547 285.000864,313.787011 311.845992,254.839807 C338.691121,195.892602 328.210389,126.655773 285.12148,78.29484 L285.12148,78.29484 Z" id="Path" fill="#000000" opacity="0.2"></path>
            <path d="M376.60262,430.5545 L377.73629,428.8025 C377.400096,427.873809 377.011789,426.964818 376.57322,426.07986 L375.84015,426.67195 L376.42059,425.77495 C375.86743,424.68606 375.43216,424 375.43216,424 C374.035541,426.281939 373.011627,428.77193 372.39896,431.37624 L373.85372,433.62451 L372.24324,432.32373 C372.185877,432.765621 372.156366,433.210683 372.15488,433.65628 C372.15488,438.14894 373.62217,441.79096 375.43216,441.79096 C377.24215,441.79096 378.70945,438.14896 378.70945,433.65628 C378.675501,432.226917 378.422651,430.811204 377.95971,429.45846 L376.60262,430.5545 Z" id="Path" fill="#2196F3"></path>
            <path d="M384.62688,434.44938 L386.66738,434.01213 C387.086335,433.117721 387.45451,432.200395 387.77015,431.26452 L386.83315,431.16483 L387.87789,430.94097 C388.2567,429.77986 388.43404,428.98697 388.43404,428.98697 C385.832905,429.612988 383.348197,430.649663 381.07345,432.05797 L380.51235,434.6764 L380.29335,432.61783 C379.940328,432.889734 379.604755,433.18357 379.28862,433.4976 C376.11183,436.6744 374.57406,440.28722 375.85392,441.56708 C377.13378,442.84694 380.7466,441.30917 383.9234,438.13238 C384.910106,437.097663 385.732375,435.917812 386.36156,434.63393 L384.62688,434.44938 Z" id="Path" fill="#2196F3"></path>
            <path d="M385.37219,451.8337 C380.64048,452.13637 375.48479,451.8161 370,451.8337 L370,439.27614 C375.099173,439.990401 380.273017,439.990401 385.37219,439.27614 L385.37219,451.8337 Z" id="Path" fill="#E6E6E6"></path>
            <polygon id="Path" fill="#3F3D56" points="163.5 210.549 163.736759 210.549 168 452.549 159 452.549"></polygon>
            <polygon id="Path" fill="#3F3D56" points="455.5 168 455.736759 168 460 451 451 451"></polygon>
            <path d="M149.68508,51.51533 L158.89077,44.15254 C151.73928,43.36354 148.80086,47.26381 147.59829,50.3509 C142.01129,48.03096 135.9291,51.07136 135.9291,51.07136 L154.34798,57.75807 C153.418776,55.2761777 151.801261,53.1106311 149.68508,51.51533 L149.68508,51.51533 Z" id="Path" fill="#3F3D56"></path>
            <path d="M289.68508,126.51533 L298.89077,119.15254 C291.73928,118.36354 288.80086,122.26381 287.59829,125.3509 C282.01129,123.03096 275.9291,126.07136 275.9291,126.07136 L294.34798,132.75807 C293.418776,130.276178 291.801261,128.110631 289.68508,126.51533 L289.68508,126.51533 Z" id="Path" fill="#3F3D56"></path>
            <path d="M138.68508,190.51533 L147.89077,183.15254 C140.73928,182.36354 137.80086,186.26381 136.59829,189.3509 C131.01129,187.03096 124.9291,190.07136 124.9291,190.07136 L143.34798,196.75807 C142.418776,194.276178 140.801261,192.110631 138.68508,190.51533 Z" id="Path" fill="#3F3D56"></path>
        </g>
    </g>
</svg>