<?xml version="1.0" encoding="UTF-8"?>
<svg width="219px" height="193px" viewBox="0 0 219 193" version="1.1" xmlns="http://www.w3.org/2000/svg" xmlns:xlink="http://www.w3.org/1999/xlink">
    <title>insert-block</title>
    <defs>
        <polygon id="path-1" points="0.00573333319 0.115599997 105.860931 0.115599997 105.860931 119.466664 0.00573333319 119.466664"></polygon>
        <polygon id="path-3" points="0 0 218.666661 0 218.666661 51.892132 0 51.892132"></polygon>
    </defs>
    <g id="Page-1" stroke="none" stroke-width="1" fill="none" fill-rule="evenodd">
        <g id="insert-block">
            <g id="main_logo" transform="translate(109.500000, 96.500000) scale(-1, 1) rotate(-180.000000) translate(-109.500000, -96.500000) translate(0.000000, -0.000000)">
                <g id="mergeData">
                    <g id="imgData" transform="translate(56.000000, 72.000000)">
                        <g id="Group" transform="translate(0.399999, 0.533332)">
                            <g id="g16-Clipped">
                                <g>
                                    <mask id="mask-2" fill="white">
                                        <use xlink:href="#path-1"></use>
                                    </mask>
                                    <g id="path-2"></g>
                                    <g id="g16" mask="url(#mask-2)" fill="#2D51A3" fill-rule="nonzero">
                                        <path d="M0.00573333319,0.115599997 L0.00573333319,119.466664 L42.4431989,119.466664 L42.4431989,119.418664 C49.9827988,119.418664 56.7906652,118.694664 62.8666651,117.246664 L62.8666651,117.246664 L62.8666651,117.246664 C68.9426649,115.80933 74.3297315,113.78133 79.0266647,111.162664 L79.0266647,111.162664 L79.0266647,111.162664 C83.7253312,108.543997 87.7599978,105.397331 91.1319977,101.725331 L91.1319977,101.725331 L91.1319977,101.725331 C94.5039976,98.0626642 97.2826642,94.0226643 99.4666642,89.6053311 L99.4666642,89.6053311 L99.4666642,89.6053311 C101.639997,85.1866645 103.251997,80.4546647 104.302664,75.4093314 L104.302664,75.4093314 L104.302664,75.4093314 C105.341331,70.3519982 105.861331,65.1093317 105.861331,59.6791985 L105.861331,59.6791985 L105.861331,59.6791985 C105.861331,54.5906653 105.405331,49.6718654 104.493331,44.9239989 L104.493331,44.9239989 L104.493331,44.9239989 C103.581331,40.1650657 102.175997,35.6729324 100.277331,31.4463992 L100.277331,31.4463992 L100.277331,31.4463992 C98.3693309,27.2197327 95.9399976,23.3073328 92.993331,19.7093328 L92.993331,19.7093328 L92.993331,19.7093328 C90.0559977,16.1213329 86.5453312,12.9598663 82.4626646,10.2239997 L82.4626646,10.2239997 L82.4626646,10.2239997 C78.379998,7.48746648 73.6989315,5.2521332 68.4177316,3.51666658 L68.4177316,3.51666658 L68.4177316,3.51666658 C63.1478651,1.77079996 57.2521319,0.636933317 50.7302654,0.115599997 L50.7302654,0.115599997 L0.00573333319,0.115599997 Z M42.7770656,111.050664 L42.7770656,10.5109331 C43.1166656,14.5458663 43.4083989,18.9322662 43.6521322,23.6693327 L43.6521322,23.6693327 L43.6521322,23.6693327 C43.8958656,28.4067993 44.0921322,33.2931992 44.2406656,38.329199 L44.2406656,38.329199 L44.2406656,38.329199 C44.3890656,43.3535989 44.5005322,48.4583988 44.5745322,53.6431987 L44.5745322,53.6431987 L44.5745322,53.6431987 C44.6489322,58.8275985 44.6859989,63.8893317 44.6859989,68.8293316 L44.6859989,68.8293316 L44.6859989,68.8293316 C44.6859989,73.8119982 44.6489322,78.5546647 44.5745322,83.0573313 L44.5745322,83.0573313 L44.5745322,83.0573313 C44.5005322,87.5719978 44.3890656,91.6706644 44.2406656,95.3533309 L44.2406656,95.3533309 L44.2406656,95.3533309 C44.0921322,99.0479975 43.8958656,102.251997 43.6521322,104.966664 L43.6521322,104.966664 L43.6521322,104.966664 C43.4083989,107.670664 43.1166656,109.698664 42.7770656,111.050664 Z M42.8885323,8.08386646 L42.8885323,8.08386646 L42.8885323,8.08386646 C43.6417322,12.0546664 44.2885322,16.4463996 44.8291989,21.2583995 L44.8291989,21.2583995 L44.8291989,21.2583995 C45.3697322,26.070266 45.8046655,31.0947992 46.1333322,36.3327991 L46.1333322,36.3327991 L46.1333322,36.3327991 C46.4729322,41.570799 46.7166655,46.9202655 46.8650655,52.3811987 L46.8650655,52.3811987 L46.8650655,52.3811987 C47.0135988,57.8426652 47.0879988,63.1973318 47.0879988,68.446665 L47.0879988,68.446665 L47.0879988,68.446665 C47.0879988,69.3079983 47.0770655,70.8413316 47.0562655,73.0453315 L47.0562655,73.0453315 L47.0562655,73.0453315 C47.0453322,75.2493315 47.0030655,77.7826647 46.9286655,80.6466647 L46.9286655,80.6466647 L46.9286655,80.6466647 C46.8546655,83.5093312 46.7327988,86.5599978 46.5630655,89.7959978 L46.5630655,89.7959978 L46.5630655,89.7959978 C46.3931988,93.033331 46.1494655,96.1199976 45.8311989,99.0586642 L45.8311989,99.0586642 L45.8311989,99.0586642 C45.5130655,101.997331 45.1103989,104.626664 44.6223989,106.946664 L44.6223989,106.946664 L44.6223989,106.946664 C44.1453322,109.267997 43.5515989,110.954664 42.8411989,112.009331 L42.8411989,112.009331 L42.8411989,112.009331 C43.2119989,110.881331 43.5354656,108.979997 43.8109322,106.307997 L43.8109322,106.307997 L43.8109322,106.307997 C44.0973322,103.635997 44.3306656,100.389331 44.5109322,96.5666643 L44.5109322,96.5666643 L44.5109322,96.5666643 C44.7021322,92.745331 44.8343989,88.4719978 44.9087989,83.7439979 L44.9087989,83.7439979 L44.9087989,83.7439979 C44.9827989,79.0066647 45.0197322,74.0359981 45.0197322,68.8293316 L45.0197322,68.8293316 L45.0197322,68.8293316 C45.0197322,63.6346651 44.9827989,58.3218652 44.9087989,52.8926653 L44.9087989,52.8926653 L44.9087989,52.8926653 C44.8343989,47.4630655 44.7125322,42.1083989 44.5426656,36.8275991 L44.5426656,36.8275991 L44.5426656,36.8275991 C44.3734656,31.5583992 44.1505322,26.4693327 43.8750656,21.5614661 L43.8750656,21.5614661 L43.8750656,21.5614661 C43.5989322,16.6645329 43.2702656,12.1718664 42.8885323,8.08386646 L42.8885323,8.08386646 Z M43.1750656,7.52506648 L43.1750656,7.52506648 L43.1750656,7.52506648 C44.2989322,11.346933 45.2693322,15.6426663 46.0859988,20.4119995 L46.0859988,20.4119995 L46.0859988,20.4119995 C46.9021322,25.1811994 47.5650655,30.2062659 48.0739988,35.4863991 L48.0739988,35.4863991 L48.0739988,35.4863991 C48.5723988,40.7666656 48.9437321,46.1750655 49.1874654,51.710932 L49.1874654,51.710932 L49.1874654,51.710932 C49.4311988,57.2469319 49.5530654,62.7133318 49.5530654,68.110665 L49.5530654,68.110665 L49.5530654,68.110665 C49.5530654,69.6439983 49.5322654,71.6719982 49.4895988,74.1946648 L49.4895988,74.1946648 L49.4895988,74.1946648 C49.4578654,76.7186647 49.3729321,79.459998 49.2354654,82.4186646 L49.2354654,82.4186646 L49.2354654,82.4186646 C49.1078654,85.3786645 48.9062654,88.4279978 48.6306655,91.569331 L48.6306655,91.569331 L48.6306655,91.569331 C48.3442655,94.709331 47.9625321,97.6586642 47.4854655,100.415997 L47.4854655,100.415997 L47.4854655,100.415997 C46.9978655,103.162664 46.3879988,105.605331 45.6562655,107.745331 L45.6562655,107.745331 L45.6562655,107.745331 C44.9354655,109.874664 44.0707989,111.407997 43.0635989,112.345331 L43.0635989,112.345331 L43.0635989,112.345331 C43.8483989,111.258664 44.5218656,109.358664 45.0838655,106.643997 L45.0838655,106.643997 L45.0838655,106.643997 C45.6349322,103.929331 46.0911988,100.633331 46.4515988,96.7586642 L46.4515988,96.7586642 L46.4515988,96.7586642 C46.8015988,92.8839977 47.0614655,88.5239978 47.2311988,83.6799979 L47.2311988,83.6799979 L47.2311988,83.6799979 C47.4005321,78.835998 47.4854655,73.7586648 47.4854655,68.446665 L47.4854655,68.446665 L47.4854655,68.446665 C47.4854655,63.1239984 47.4005321,57.7046652 47.2311988,52.190132 L47.2311988,52.190132 L47.2311988,52.190132 C47.0614655,46.6645322 46.8067988,41.256799 46.4677322,35.9655991 L46.4677322,35.9655991 L46.4677322,35.9655991 C46.1385322,30.6639992 45.7041322,25.5911994 45.1630655,20.7473328 L45.1630655,20.7473328 L45.1630655,20.7473328 C44.6223989,15.9030663 43.9598656,11.4958664 43.1750656,7.52506648 L43.1750656,7.52506648 Z M43.3973322,7.03026649 L43.3973322,7.03026649 L43.3973322,7.03026649 C44.5535989,9.87239975 45.5765322,12.9598663 46.4677322,16.2917329 L46.4677322,16.2917329 L46.4677322,16.2917329 C47.3687988,19.6239995 48.1374655,23.0838661 48.7739988,26.671866 L48.7739988,26.671866 L48.7739988,26.671866 C49.3994654,30.2697326 49.9193321,33.9109325 50.3327987,37.5942657 L50.3327987,37.5942657 L50.3327987,37.5942657 C50.7463987,41.277599 51.0750654,44.8973322 51.3187987,48.4530655 L51.3187987,48.4530655 L51.3187987,48.4530655 C51.552132,52.0087987 51.7166654,55.4259986 51.8119987,58.7051985 L51.8119987,58.7051985 L51.8119987,58.7051985 C51.907332,61.9733318 51.9551987,64.9759984 51.9551987,67.7119983 L51.9551987,67.7119983 L51.9551987,67.7119983 C51.9551987,69.6599983 51.9286654,71.9959982 51.8754654,74.7213315 L51.8754654,74.7213315 L51.8754654,74.7213315 C51.8119987,77.4573314 51.6791987,80.3426647 51.478132,83.3773312 L51.478132,83.3773312 L51.478132,83.3773312 C51.2765321,86.4106645 50.9901321,89.4719978 50.6187987,92.5599977 L50.6187987,92.5599977 L50.6187987,92.5599977 C50.2374654,95.6466643 49.7229321,98.5266642 49.0759988,101.198664 L49.0759988,101.198664 L49.0759988,101.198664 C48.4187988,103.870664 47.6286655,106.217331 46.7062655,108.239997 L46.7062655,108.239997 L46.7062655,108.239997 C45.7729322,110.262664 44.6541322,111.721331 43.3499989,112.615997 L43.3499989,112.615997 L43.3499989,112.615997 C44.5057322,111.530664 45.5026655,109.614664 46.3401322,106.866664 L46.3401322,106.866664 L46.3401322,106.866664 C47.1781322,104.121331 47.8567988,100.783997 48.3759988,96.8546642 L48.3759988,96.8546642 L48.3759988,96.8546642 C48.8958654,92.9159977 49.2775988,88.4866645 49.5213321,83.5693312 L49.5213321,83.5693312 L49.5213321,83.5693312 C49.7655988,78.6506647 49.8874654,73.4973315 49.8874654,68.110665 L49.8874654,68.110665 L49.8874654,68.110665 C49.8874654,62.6386651 49.7655988,57.1083986 49.5213321,51.519332 L49.5213321,51.519332 L49.5213321,51.519332 C49.2775988,45.9193322 48.8958654,40.463599 48.3759988,35.1510658 L48.3759988,35.1510658 L48.3759988,35.1510658 C47.8567988,29.8390659 47.1833322,24.7765327 46.3562655,19.9645328 L46.3562655,19.9645328 L46.3562655,19.9645328 C45.5395989,15.1526663 44.5535989,10.8411997 43.3973322,7.03026649 L43.3973322,7.03026649 Z M43.6202656,6.5666665 L43.6202656,6.5666665 L43.6202656,6.5666665 C45.1155989,9.30306643 46.4145322,12.326533 47.5171988,15.6369329 L47.5171988,15.6369329 L47.5171988,15.6369329 C48.6093321,18.9478662 49.5583988,22.3921328 50.3645321,25.9693327 L50.3645321,25.9693327 L50.3645321,25.9693327 C51.1598654,29.5458659 51.8223987,33.1973325 52.3526654,36.9234657 L52.3526654,36.9234657 L52.3526654,36.9234657 C52.8723987,40.6390657 53.2806653,44.2958656 53.5775987,47.8942655 L53.5775987,47.8942655 L53.5775987,47.8942655 C53.874532,51.481732 54.0863986,54.9363986 54.2135986,58.2578652 L54.2135986,58.2578652 L54.2135986,58.2578652 C54.3515986,61.5693318 54.4202653,64.6079984 54.4202653,67.3759983 L54.4202653,67.3759983 L54.4202653,67.3759983 C54.4202653,67.5573316 54.4202653,68.2759983 54.4202653,69.5319983 L54.4202653,69.5319983 L54.4202653,69.5319983 C54.4202653,70.7879982 54.388532,72.3799982 54.3250653,74.3066648 L54.3250653,74.3066648 L54.3250653,74.3066648 C54.2718653,76.2333314 54.171332,78.415998 54.022932,80.8546646 L54.022932,80.8546646 L54.022932,80.8546646 C53.874532,83.2813313 53.6411987,85.7933312 53.322932,88.3906645 L53.322932,88.3906645 L53.322932,88.3906645 C53.0046653,90.9999977 52.596932,93.5919977 52.0983987,96.1679976 L52.0983987,96.1679976 L52.0983987,96.1679976 C51.5890654,98.7546642 50.9478654,101.150664 50.1734654,103.354664 L50.1734654,103.354664 L50.1734654,103.354664 C49.3890654,105.567997 48.4609321,107.506664 47.3901321,109.166664 L47.3901321,109.166664 L47.3901321,109.166664 C46.3297322,110.838664 45.0942655,112.067997 43.6838656,112.855997 L43.6838656,112.855997 L43.6838656,112.855997 C45.2426655,111.769331 46.5630655,109.831997 47.6447988,107.042664 L47.6447988,107.042664 L47.6447988,107.042664 C48.7259988,104.253331 49.6223988,100.862664 50.3327987,96.8706642 L50.3327987,96.8706642 L50.3327987,96.8706642 C51.0431987,92.889331 51.557332,88.4066645 51.8754654,83.4253312 L51.8754654,83.4253312 L51.8754654,83.4253312 C52.193732,78.4533314 52.3526654,73.2159982 52.3526654,67.7119983 L52.3526654,67.7119983 L52.3526654,67.7119983 C52.3526654,62.1759984 52.183332,56.5598653 51.843732,50.8645321 L51.843732,50.8645321 L51.843732,50.8645321 C51.5046654,45.1797322 50.9901321,39.6702657 50.3010654,34.3363991 L50.3010654,34.3363991 L50.3010654,34.3363991 C49.6114654,29.0030659 48.7207988,23.9677327 47.6286655,19.2302662 L47.6286655,19.2302662 L47.6286655,19.2302662 C46.5259988,14.4926663 45.1895989,10.2718664 43.6202656,6.5666665 L43.6202656,6.5666665 Z M43.7953322,6.11973318 L43.7953322,6.11973318 L43.7953322,6.11973318 C45.5765322,8.73853311 47.1515988,11.6874664 48.5193321,14.9666663 L48.5193321,14.9666663 L48.5193321,14.9666663 C49.8765321,18.2453329 51.0431987,21.6682661 52.0187987,25.2343994 L52.0187987,25.2343994 L52.0187987,25.2343994 C52.9838653,28.8114659 53.7739987,32.4734659 54.388532,36.2207991 L54.388532,36.2207991 L54.388532,36.2207991 C55.0035986,39.9578657 55.4863986,43.6411989 55.8363986,47.2713322 L55.8363986,47.2713322 L55.8363986,47.2713322 C56.1969319,50.9015987 56.4510653,54.393732 56.5994653,57.7469319 L56.5994653,57.7469319 L56.5994653,57.7469319 C56.7478652,61.0999985 56.8223986,64.1773317 56.8223986,66.9773317 L56.8223986,66.9773317 L56.8223986,66.9773317 C56.8223986,67.466665 56.8223986,68.414665 56.8223986,69.8186649 L56.8223986,69.8186649 L56.8223986,69.8186649 C56.8223986,71.2253316 56.7745319,72.9333315 56.6791986,74.9453315 L56.6791986,74.9453315 L56.6791986,74.9453315 C56.5838653,76.9679981 56.4458653,79.2093314 56.2655986,81.667998 L56.2655986,81.667998 L56.2655986,81.667998 C56.0750653,84.1173312 55.7833319,86.6293312 55.3906653,89.2053311 L55.3906653,89.2053311 L55.3906653,89.2053311 C54.9983986,91.793331 54.5051986,94.3479976 53.9114653,96.8706642 L53.9114653,96.8706642 L53.9114653,96.8706642 C53.317732,99.4053308 52.564532,101.746664 51.6530654,103.897331 L51.6530654,103.897331 L51.6530654,103.897331 C50.7411987,106.047997 49.6593321,107.937331 48.4078655,109.566664 L48.4078655,109.566664 L48.4078655,109.566664 C47.1567988,111.194664 45.7093322,112.381331 44.0655989,113.126664 L44.0655989,113.126664 L44.0655989,113.126664 C45.9745322,112.009331 47.6073321,110.045331 48.9645321,107.234664 L48.9645321,107.234664 L48.9645321,107.234664 C50.3218654,104.423997 51.4302654,100.990664 52.2890654,96.9346642 L52.2890654,96.9346642 L52.2890654,96.9346642 C53.1478653,92.8679977 53.7739987,88.3119978 54.166132,83.2653313 L54.166132,83.2653313 L54.166132,83.2653313 C54.5583986,78.207998 54.7546653,72.9119982 54.7546653,67.3759983 L54.7546653,67.3759983 L54.7546653,67.3759983 C54.7546653,61.6813318 54.5478653,55.9639986 54.1343986,50.2254654 L54.1343986,50.2254654 L54.1343986,50.2254654 C53.7207987,44.4770656 53.0791987,38.9250657 52.209332,33.5702658 L52.209332,33.5702658 L52.209332,33.5702658 C51.3297321,28.2259993 50.1895987,23.2062661 48.7895988,18.5114662 L48.7895988,18.5114662 L48.7895988,18.5114662 C47.4005321,13.8062663 45.7359989,9.67546642 43.7953322,6.11973318 L43.7953322,6.11973318 Z M44.0177322,5.78439986 L44.0177322,5.78439986 L44.0177322,5.78439986 C46.1067988,8.29693313 47.9417321,11.1499997 49.5213321,14.343733 L49.5213321,14.343733 L49.5213321,14.343733 C51.1015987,17.5478662 52.4639987,20.9281328 53.609332,24.4838661 L53.609332,24.4838661 L53.609332,24.4838661 C54.743732,28.0395993 55.6718653,31.7073325 56.3926653,35.4863991 L56.3926653,35.4863991 L56.3926653,35.4863991 C57.1245319,39.265599 57.7026652,42.9917323 58.1265319,46.6645322 L58.1265319,46.6645322 L58.1265319,46.6645322 C58.5614652,50.3270654 58.8635985,53.8614653 59.0333319,57.2682652 L59.0333319,57.2682652 L59.0333319,57.2682652 C59.2030652,60.6745318 59.2879985,63.7999984 59.2879985,66.6413317 L59.2879985,66.6413317 L59.2879985,66.6413317 C59.2879985,72.4866649 58.9963985,78.027998 58.4130652,83.2653313 L58.4130652,83.2653313 L58.4130652,83.2653313 C57.8406652,88.5026645 56.9442652,93.197331 55.7250653,97.3506642 L55.7250653,97.3506642 L55.7250653,97.3506642 C54.516132,101.501331 52.962532,104.982664 51.0645321,107.793331 L51.0645321,107.793331 L51.0645321,107.793331 C49.1557321,110.603997 46.8811988,112.493331 44.2406656,113.462664 L44.2406656,113.462664 L44.2406656,113.462664 C46.5521322,112.418664 48.5302655,110.475997 50.1734654,107.633331 L50.1734654,107.633331 L50.1734654,107.633331 C51.8067987,104.781331 53.1478653,101.287997 54.1978653,97.1586642 L54.1978653,97.1586642 L54.1978653,97.1586642 C55.236932,93.017331 56.0005319,88.3759978 56.4885319,83.2333313 L56.4885319,83.2333313 L56.4885319,83.2333313 C56.9655986,78.0906647 57.2041319,72.6719982 57.2041319,66.9773317 L57.2041319,66.9773317 L57.2041319,66.9773317 C57.2041319,61.2173318 56.9546652,55.4259986 56.4567986,49.6030654 L56.4567986,49.6030654 L56.4567986,49.6030654 C55.9583986,43.7797322 55.1734653,38.1958657 54.1026653,32.8515992 L54.1026653,32.8515992 L54.1026653,32.8515992 C53.042132,27.4969326 51.684932,22.4983994 50.0306654,17.8567996 L50.0306654,17.8567996 L50.0306654,17.8567996 C48.3655988,13.2150663 46.3614655,9.19119977 44.0177322,5.78439986 L44.0177322,5.78439986 Z M44.1770656,5.4489332 L44.1770656,5.4489332 L44.1770656,5.4489332 C46.6051988,7.84426647 48.7155988,10.6067997 50.5078654,13.736933 L50.5078654,13.736933 L50.5078654,13.736933 C52.2890654,16.8562662 53.8322653,20.1827995 55.1363986,23.7171994 L55.1363986,23.7171994 L55.1363986,23.7171994 C56.4406653,27.2625327 57.5171986,30.9245326 58.3650652,34.7041325 L58.3650652,34.7041325 L58.3650652,34.7041325 C59.2030652,38.4833324 59.8707985,42.2254656 60.3693318,45.9302655 L60.3693318,45.9302655 L60.3693318,45.9302655 C60.8786651,49.6349321 61.2229318,53.2171987 61.4030651,56.6770652 L61.4030651,56.6770652 L61.4030651,56.6770652 C61.5942651,60.1369318 61.6895985,63.3306651 61.6895985,66.258665 L61.6895985,66.258665 L61.6895985,66.258665 C61.6895985,72.1666649 61.3609318,77.7773314 60.7035985,83.0893313 L60.7035985,83.0893313 L60.7035985,83.0893313 C60.0567985,88.4026645 59.0494652,93.1666643 57.6811986,97.3813309 L57.6811986,97.3813309 L57.6811986,97.3813309 C56.3239986,101.586664 54.5635986,105.115997 52.400532,107.969331 L52.400532,107.969331 L52.400532,107.969331 C50.2374654,110.811997 47.6447988,112.717331 44.6223989,113.68533 L44.6223989,113.68533 L44.6223989,113.68533 C47.3155988,112.599997 49.6114654,110.625331 51.5098654,107.761331 L51.5098654,107.761331 L51.5098654,107.761331 C53.4078653,104.897331 54.9562653,101.378664 56.1541319,97.2066642 L56.1541319,97.2066642 L56.1541319,97.2066642 C57.3421319,93.033331 58.2166652,88.3386645 58.7786652,83.1213313 L58.7786652,83.1213313 L58.7786652,83.1213313 C59.3406652,77.9053314 59.6218652,72.4119982 59.6218652,66.6413317 L59.6218652,66.6413317 L59.6218652,66.6413317 C59.6218652,60.7650651 59.3302652,54.878132 58.7469319,48.9802654 L58.7469319,48.9802654 L58.7469319,48.9802654 C58.1745319,43.0926656 57.2729319,37.4718657 56.0431986,32.1171992 L56.0431986,32.1171992 L56.0431986,32.1171992 C54.8130653,26.7619993 53.2171987,21.7958661 51.2551987,17.2182662 L51.2551987,17.2182662 L51.2551987,17.2182662 C49.2931988,12.629733 46.9338655,8.70679978 44.1770656,5.4489332 Z M44.3994656,5.11359987 L44.3994656,5.11359987 L44.3994656,5.11359987 C47.0931988,7.39173315 49.4526654,10.0587997 51.478132,13.1139997 L51.478132,13.1139997 L51.478132,13.1139997 C53.5139987,16.1693329 55.2687986,19.4431995 56.7426652,22.9349328 L56.7426652,22.9349328 L56.7426652,22.9349328 C58.2062652,26.437466 59.4150652,30.0781326 60.3693318,33.8578658 L60.3693318,33.8578658 L60.3693318,33.8578658 C61.3239985,37.6369324 62.0765318,41.399999 62.6281318,45.1473322 L62.6281318,45.1473322 L62.6281318,45.1473322 C63.1901318,48.8843988 63.5822651,52.519732 63.8051984,56.0541319 L63.8051984,56.0541319 L63.8051984,56.0541319 C64.0275984,59.5994652 64.1390651,62.8839984 64.1390651,65.906665 L64.1390651,65.906665 L64.1390651,65.906665 C64.1390651,71.8999982 63.7786651,77.5799981 63.0578651,82.9453313 L63.0578651,82.9453313 L63.0578651,82.9453313 C62.3259984,88.3213311 61.1963985,93.133331 59.6697318,97.3813309 L59.6697318,97.3813309 L59.6697318,97.3813309 C58.1426652,101.629331 56.1754653,105.195997 53.7682653,108.081331 L53.7682653,108.081331 L53.7682653,108.081331 C51.3718654,110.954664 48.4770655,112.897331 45.0838655,113.90933 L45.0838655,113.90933 L45.0838655,113.90933 C48.0953321,112.823997 50.6827987,110.833331 52.8458653,107.937331 L52.8458653,107.937331 L52.8458653,107.937331 C55.0087986,105.030664 56.7693319,101.463997 58.1265319,97.2386642 L58.1265319,97.2386642 L58.1265319,97.2386642 C59.4947985,93.0119977 60.4969318,88.2479978 61.1327985,82.9453313 L61.1327985,82.9453313 L61.1327985,82.9453313 C61.7583985,77.6546647 62.0713318,72.0919982 62.0713318,66.258665 L62.0713318,66.258665 L62.0713318,66.258665 C62.0713318,60.3073318 61.7478651,54.3562653 61.1010651,48.4051988 L61.1010651,48.4051988 L61.1010651,48.4051988 C60.4437318,42.4541323 59.3989318,36.7906657 57.9677319,31.4145325 L57.9677319,31.4145325 L57.9677319,31.4145325 C56.5359986,26.0489327 54.7015986,21.1093328 52.4639987,16.5953329 L52.4639987,16.5953329 L52.4639987,16.5953329 C50.2265321,12.0811997 47.5385321,8.25413313 44.3994656,5.11359987 L44.3994656,5.11359987 Z M44.6223989,4.82599988 L44.6223989,4.82599988 L44.6223989,4.82599988 C47.6125321,6.96613316 50.2265321,9.5213331 52.4639987,12.4911997 L52.4639987,12.4911997 L52.4639987,12.4911997 C54.7015986,15.4723996 56.6311986,18.6817329 58.2541319,22.1202661 L58.2541319,22.1202661 L58.2541319,22.1202661 C59.8655985,25.5697327 61.2125318,29.1838659 62.2942651,32.9635992 L62.2942651,32.9635992 L62.2942651,32.9635992 C63.3754651,36.7426657 64.2239984,40.5218657 64.839065,44.3010656 L64.839065,44.3010656 L64.839065,44.3010656 C65.4541317,48.0806655 65.894265,51.774532 66.1593317,55.3838653 L66.1593317,55.3838653 L66.1593317,55.3838653 C66.4245317,59.0030652 66.5567983,62.3839984 66.5567983,65.5239984 L66.5567983,65.5239984 L66.5567983,65.5239984 C66.5567983,71.5813315 66.1645317,77.3253314 65.3797317,82.7546646 L65.3797317,82.7546646 L65.3797317,82.7546646 C64.5953317,88.1839978 63.3546651,93.0599977 61.6578651,97.3813309 L61.6578651,97.3813309 L61.6578651,97.3813309 C59.9609318,101.703997 57.7874652,105.334664 55.1363986,108.271997 L55.1363986,108.271997 L55.1363986,108.271997 C52.4958654,111.210664 49.3093321,113.185331 45.5765322,114.19733 L45.5765322,114.19733 L45.5765322,114.19733 C48.9379988,113.110664 51.8171987,111.087997 54.2135986,108.127997 L54.2135986,108.127997 L54.2135986,108.127997 C56.6207986,105.169331 58.5827985,101.549331 60.0989318,97.2693309 L60.0989318,97.2693309 L60.0989318,97.2693309 C61.6046651,92.9799977 62.7130651,88.1626645 63.4234651,82.8186646 L63.4234651,82.8186646 L63.4234651,82.8186646 C64.1338651,77.4626647 64.4890651,71.8266649 64.4890651,65.906665 L64.4890651,65.906665 L64.4890651,65.906665 C64.4890651,59.8494652 64.1125317,53.8187987 63.3598651,47.8145321 L63.3598651,47.8145321 L63.3598651,47.8145321 C62.6177318,41.7994656 61.4510651,36.1093324 59.8603985,30.7437326 L59.8603985,30.7437326 L59.8603985,30.7437326 C58.2802652,25.3677327 56.2338653,20.4546662 53.7207987,16.0046663 L53.7207987,16.0046663 L53.7207987,16.0046663 C51.1969321,11.5546664 48.1639988,7.82866647 44.6223989,4.82599988 L44.6223989,4.82599988 Z M44.9087989,4.55466655 L44.9087989,4.55466655 L44.9087989,4.55466655 C48.1535988,6.57759984 51.0062654,9.02599977 53.466132,11.900533 L53.466132,11.900533 L53.466132,11.900533 C55.9265319,14.7854663 58.0417319,17.9311996 59.8125318,21.3379995 L59.8125318,21.3379995 L59.8125318,21.3379995 C61.5838651,24.7447994 63.0630651,28.327066 64.2505317,32.0849325 L64.2505317,32.0849325 L64.2505317,32.0849325 C65.4489317,35.8535991 66.392665,39.6437323 67.0817317,43.4546656 L67.0817317,43.4546656 L67.0817317,43.4546656 C67.7707983,47.2765322 68.2639983,51.0297321 68.5609316,54.7130653 L68.5609316,54.7130653 L68.5609316,54.7130653 C68.8578649,58.3963985 69.0062649,61.8879985 69.0062649,65.1879984 L69.0062649,65.1879984 L69.0062649,65.1879984 C69.0062649,71.2879982 68.577065,77.0959981 67.718265,82.6106646 L67.718265,82.6106646 L67.718265,82.6106646 C66.8697317,88.1359978 65.5229317,93.0759977 63.6781317,97.4293309 L63.6781317,97.4293309 L63.6781317,97.4293309 C61.8327985,101.794664 59.4521318,105.457331 56.5359986,108.415997 L56.5359986,108.415997 L56.5359986,108.415997 C53.6306653,111.375997 50.1469321,113.37733 46.0859988,114.419997 L46.0859988,114.419997 L46.0859988,114.419997 C49.8078654,113.291997 52.9838653,111.242664 55.6135986,108.271997 L55.6135986,108.271997 L55.6135986,108.271997 C58.2431985,105.291997 60.3958652,101.634664 62.0713318,97.3026642 L62.0713318,97.3026642 L62.0713318,97.3026642 C63.7573317,92.9586643 64.987465,88.0719978 65.761465,82.6426646 L65.761465,82.6426646 L65.761465,82.6426646 C66.5463983,77.2133314 66.9385317,71.5066649 66.9385317,65.5239984 L66.9385317,65.5239984 L66.9385317,65.5239984 C66.9385317,59.3494652 66.530265,53.238532 65.7139984,47.1917322 L65.7139984,47.1917322 L65.7139984,47.1917322 C64.8973317,41.144799 63.6035984,35.4437324 61.8327985,30.0890659 L61.8327985,30.0890659 L61.8327985,30.0890659 C60.0619985,24.7447994 57.7765319,19.8635995 54.9770653,15.4453329 L54.9770653,15.4453329 L54.9770653,15.4453329 C52.1775987,11.0275997 48.8213321,7.39733315 44.9087989,4.55466655 L44.9087989,4.55466655 Z M45.1311989,4.33119989 L45.1311989,4.33119989 L45.1311989,4.33119989 C48.6411988,6.23693318 51.7166654,8.57346645 54.3567986,11.341733 L54.3567986,11.341733 L54.3567986,11.341733 C57.0078652,14.109333 59.3087985,17.1702662 61.2603985,20.5234662 L61.2603985,20.5234662 L61.2603985,20.5234662 C63.2218651,23.8770661 64.8551984,27.4223993 66.1593317,31.1587992 L66.1593317,31.1587992 L66.1593317,31.1587992 C67.4635983,34.9062658 68.4973316,38.696399 69.2609316,42.5286656 L69.2609316,42.5286656 L69.2609316,42.5286656 C70.0245316,46.3718655 70.5759982,50.1885321 70.9150649,53.9786653 L70.9150649,53.9786653 L70.9150649,53.9786653 C71.2437316,57.7791986 71.4083982,61.3826651 71.4083982,64.7893317 L71.4083982,64.7893317 L71.4083982,64.7893317 C71.4083982,70.9639982 70.9469316,76.8399981 70.0245316,82.4186646 L70.0245316,82.4186646 L70.0245316,82.4186646 C69.0911983,87.9973311 67.6171983,93.001331 65.602665,97.4293309 L65.602665,97.4293309 L65.602665,97.4293309 C63.5879984,101.869331 61.0161318,105.583997 57.8879986,108.575997 L57.8879986,108.575997 L57.8879986,108.575997 C54.7494653,111.578664 50.9849321,113.599997 46.5947988,114.643997 L46.5947988,114.643997 L46.5947988,114.643997 C50.6562654,113.526664 54.1182653,111.461331 56.9811986,108.447997 L56.9811986,108.447997 L56.9811986,108.447997 C59.8551985,105.435997 62.2041318,101.725331 64.0275984,97.3173309 L64.0275984,97.3173309 L64.0275984,97.3173309 C65.8625317,92.921331 67.2087983,87.9813311 68.068265,82.4986646 L68.068265,82.4986646 L68.068265,82.4986646 C68.9161316,77.0159981 69.3406649,71.2453316 69.3406649,65.1879984 L69.3406649,65.1879984 L69.3406649,65.1879984 C69.3406649,58.9395985 68.8953316,52.754132 68.0041316,46.6327988 L68.0041316,46.6327988 L68.0041316,46.6327988 C67.1135983,40.5114657 65.687465,34.7729325 63.7254651,29.4182659 L63.7254651,29.4182659 L63.7254651,29.4182659 C61.7639985,24.0739994 59.2562652,19.2302662 56.2021319,14.8863996 L56.2021319,14.8863996 L56.2021319,14.8863996 C53.1478653,10.5431997 49.4578654,7.02453316 45.1311989,4.33119989 L45.1311989,4.33119989 Z M45.4655989,4.04373323 L45.4655989,4.04373323 L45.4655989,4.04373323 C49.1978654,5.80053319 52.4906654,8.03066647 55.3431986,10.7349331 L55.3431986,10.7349331 L55.3431986,10.7349331 C58.1958652,13.428133 60.6718651,16.4087996 62.7713318,19.6770662 L62.7713318,19.6770662 L62.7713318,19.6770662 C64.8811984,22.9562661 66.6469317,26.4587993 68.068265,30.1849326 L68.068265,30.1849326 L68.068265,30.1849326 C69.4781316,33.9109325 70.6130649,37.7062657 71.4718649,41.570799 L71.4718649,41.570799 L71.4718649,41.570799 C72.3306649,45.4458655 72.9458648,49.3311988 73.3171982,53.2275987 L73.3171982,53.2275987 L73.3171982,53.2275987 C73.6879982,57.1245319 73.8739982,60.8506651 73.8739982,64.4066651 L73.8739982,64.4066651 L73.8739982,64.4066651 C73.8739982,70.6866649 73.3697315,76.6439981 72.3625315,82.2746646 L72.3625315,82.2746646 L72.3625315,82.2746646 C71.3551982,87.9066645 69.7697316,92.969331 67.6067983,97.4613309 L67.6067983,97.4613309 L67.6067983,97.4613309 C65.4431984,101.954664 62.6863984,105.717331 59.3354652,108.751997 L59.3354652,108.751997 L59.3354652,108.751997 C55.9849319,111.785331 51.9390654,113.823997 47.1989322,114.867997 L47.1989322,114.867997 L47.1989322,114.867997 C51.5682654,113.750664 55.3062653,111.662664 58.4130652,108.607997 L58.4130652,108.607997 L58.4130652,108.607997 C61.5306651,105.562664 64.0859984,101.810664 66.0797317,97.3506642 L66.0797317,97.3506642 L66.0797317,97.3506642 C68.073465,92.8999977 69.5259983,87.8959978 70.4379982,82.3386646 L70.4379982,82.3386646 L70.4379982,82.3386646 C71.3499982,76.7813314 71.8057315,70.9319982 71.8057315,64.7893317 L71.8057315,64.7893317 L71.8057315,64.7893317 C71.8057315,58.4229319 71.3130649,52.1739987 70.3265316,46.0417322 L70.3265316,46.0417322 L70.3265316,46.0417322 C69.3406649,39.8989323 67.7921316,34.1453325 65.682265,28.7797326 L65.682265,28.7797326 L65.682265,28.7797326 C63.5718651,23.4030661 60.8521318,18.5859995 57.5223986,14.3275996 L57.5223986,14.3275996 L57.5223986,14.3275996 C54.181732,10.0587997 50.1630654,6.6306665 45.4655989,4.04373323 L45.4655989,4.04373323 Z M45.7994655,3.82026657 L45.7994655,3.82026657 L45.7994655,3.82026657 C49.4155988,5.35306653 52.6811987,7.30159982 55.5973319,9.66453309 L55.5973319,9.66453309 L55.5973319,9.66453309 C58.5030652,12.017733 61.0797318,14.700533 63.3281318,17.7130662 L63.3281318,17.7130662 L63.3281318,17.7130662 C65.5863984,20.7259995 67.5379983,24.0207994 69.1811983,27.597866 L69.1811983,27.597866 L69.1811983,27.597866 C70.8250649,31.1750659 72.1666649,34.9379991 73.2057315,38.887999 L73.2057315,38.887999 L73.2057315,38.887999 C74.2447981,42.8374656 75.0187981,46.9359988 75.5281314,51.1838654 L75.5281314,51.1838654 L75.5281314,51.1838654 C76.0265314,55.4317319 76.2754648,59.7218652 76.2754648,64.0546651 L76.2754648,64.0546651 L76.2754648,64.0546651 C76.2754648,70.3893316 75.7349314,76.4146648 74.6530648,82.1306646 L74.6530648,82.1306646 L74.6530648,82.1306646 C73.5713315,87.8586645 71.8854649,92.9906643 69.5947983,97.5253309 L69.5947983,97.5253309 L69.5947983,97.5253309 C67.304665,102.050664 64.3619984,105.845331 60.7671985,108.911997 L60.7671985,108.911997 L60.7671985,108.911997 C57.1614652,111.987997 52.824532,114.06933 47.7557321,115.154664 L47.7557321,115.154664 L47.7557321,115.154664 C52.4535987,114.026664 56.4827986,111.907997 59.8447985,108.799997 L59.8447985,108.799997 L59.8447985,108.799997 C63.1953318,105.701331 65.9363984,101.895997 68.068265,97.3813309 L68.068265,97.3813309 L68.068265,97.3813309 C70.1890649,92.8679977 71.7421315,87.7946645 72.7286648,82.1639979 L72.7286648,82.1639979 L72.7286648,82.1639979 C73.7145315,76.5319981 74.2078648,70.6119982 74.2078648,64.4066651 L74.2078648,64.4066651 L74.2078648,64.4066651 C74.2078648,57.9650652 73.6775982,51.646932 72.6171982,45.4510655 L72.6171982,45.4510655 L72.6171982,45.4510655 C71.5567982,39.255199 69.8811983,33.4797325 67.590665,28.125066 L67.590665,28.125066 L67.590665,28.125066 C65.2895984,22.7806661 62.3526651,18.0114662 58.7786652,13.8166663 L58.7786652,13.8166663 L58.7786652,13.8166663 C55.1947986,9.62239976 50.8682654,6.29013318 45.7994655,3.82026657 L45.7994655,3.82026657 Z M46.1969322,3.54893324 L46.1969322,3.54893324 L46.1969322,3.54893324 C51.976532,5.70986652 56.9229319,8.81306645 61.0374651,12.8583997 L61.0374651,12.8583997 L61.0374651,12.8583997 C65.1625317,16.9041329 68.5401316,21.5937328 71.1697316,26.927066 L71.1697316,26.927066 L71.1697316,26.927066 C73.7890648,32.2609325 75.7083981,38.0682657 76.9275981,44.3489322 L76.9275981,44.3489322 L76.9275981,44.3489322 C78.135998,50.6411987 78.7413314,57.0973319 78.7413314,63.7186651 L78.7413314,63.7186651 L78.7413314,63.7186651 C78.7413314,70.1279982 78.1733314,76.2226648 77.0386647,82.0039979 L77.0386647,82.0039979 L77.0386647,82.0039979 C75.9041314,87.7839978 74.1067981,92.969331 71.6469315,97.5573309 L71.6469315,97.5573309 L71.6469315,97.5573309 C69.1759983,102.134664 66.0213317,105.978664 62.1827984,109.086664 L62.1827984,109.086664 L62.1827984,109.086664 C58.3442652,112.194664 53.741732,114.29333 48.3759988,115.378664 L48.3759988,115.378664 L48.3759988,115.378664 C53.4130653,114.218664 57.7182652,112.073331 61.2921318,108.942664 L61.2921318,108.942664 L61.2921318,108.942664 C64.8759984,105.823997 67.803065,101.985331 70.0723982,97.4293309 L70.0723982,97.4293309 L70.0723982,97.4293309 C72.3521315,92.8839977 74.0223981,87.7573311 75.0827981,82.0519979 L75.0827981,82.0519979 L75.0827981,82.0519979 C76.1431981,76.3453314 76.6734647,70.3466649 76.6734647,64.0546651 L76.6734647,64.0546651 L76.6734647,64.0546651 C76.6734647,57.5499986 76.1057314,51.1734654 74.9713315,44.9239989 L74.9713315,44.9239989 L74.9713315,44.9239989 C73.8259982,38.663999 72.0234649,32.8625325 69.5630649,27.518266 L69.5630649,27.518266 L69.5630649,27.518266 C67.103065,22.1630661 63.9483984,17.4098662 60.0989318,13.2578663 L60.0989318,13.2578663 L60.0989318,13.2578663 C56.2390653,9.10573311 51.6051987,5.86973319 46.1969322,3.54893324 L46.1969322,3.54893324 Z M46.5947988,3.32506658 L46.5947988,3.32506658 L46.5947988,3.32506658 C52.745332,5.33746653 57.9994652,8.34999979 62.3578651,12.3635997 L62.3578651,12.3635997 L62.3578651,12.3635997 C66.7161317,16.3666663 70.2947982,21.0239995 73.0942648,26.3363993 L73.0942648,26.3363993 L73.0942648,26.3363993 C75.8937314,31.6483992 77.9346647,37.4666657 79.2186647,43.7901322 L79.2186647,43.7901322 L79.2186647,43.7901322 C80.5013313,50.1139987 81.1426646,56.6291986 81.1426646,63.3359984 L81.1426646,63.3359984 L81.1426646,63.3359984 C81.1426646,69.8093316 80.5386647,75.9733314 79.3293314,81.827998 L79.3293314,81.827998 L79.3293314,81.827998 C78.1213314,87.6839978 76.2171981,92.9266643 73.6193315,97.5573309 L73.6193315,97.5573309 L73.6193315,97.5573309 C71.0317316,102.177331 67.7073316,106.069331 63.6463984,109.230664 L63.6463984,109.230664 L63.6463984,109.230664 C59.5849318,112.393331 54.7015986,114.515997 48.9963988,115.602664 L48.9963988,115.602664 L48.9963988,115.602664 C54.3619986,114.44133 58.9483985,112.281331 62.7551984,109.118664 L62.7551984,109.118664 L62.7551984,109.118664 C66.5515983,105.957331 69.6639983,102.071997 72.0921315,97.4613309 L72.0921315,97.4613309 L72.0921315,97.4613309 C74.5098648,92.8626643 76.2806648,87.6786645 77.4053314,81.907998 L77.4053314,81.907998 L77.4053314,81.907998 C78.5186647,76.1479981 79.0746647,70.0853316 79.0746647,63.7186651 L79.0746647,63.7186651 L79.0746647,63.7186651 C79.0746647,57.0973319 78.4706647,50.6411987 77.2613314,44.3489322 L77.2613314,44.3489322 L77.2613314,44.3489322 C76.0526648,38.0682657 74.1390648,32.2499992 71.5197315,26.8953327 L71.5197315,26.8953327 L71.5197315,26.8953327 C68.9109316,21.5401328 65.549465,16.8239996 61.4349318,12.746933 L61.4349318,12.746933 L61.4349318,12.746933 C57.3103986,8.66933312 52.3635987,5.52866653 46.5947988,3.32506658 L46.5947988,3.32506658 Z M46.9765322,3.08546659 L46.9765322,3.08546659 L46.9765322,3.08546659 C51.3030654,4.36306656 55.2155986,6.09839985 58.7150652,8.29173313 L58.7150652,8.29173313 L58.7150652,8.29173313 C62.2250651,10.4739997 65.342665,13.0291997 68.068265,15.9567996 L68.068265,15.9567996 L68.068265,15.9567996 C70.7827982,18.8734662 73.1207982,22.1202661 75.0827981,25.6973327 L75.0827981,25.6973327 L75.0827981,25.6973327 C77.0333314,29.2639993 78.6453314,33.0483992 79.9186647,37.0515991 L79.9186647,37.0515991 L79.9186647,37.0515991 C81.179998,41.0650656 82.1133313,45.2489322 82.7173313,49.6030654 L82.7173313,49.6030654 L82.7173313,49.6030654 C83.3119979,53.967732 83.6079979,58.4125319 83.6079979,62.9373318 L83.6079979,62.9373318 L83.6079979,62.9373318 C83.6079979,69.4839983 82.9666646,75.7173314 81.683998,81.635998 L81.683998,81.635998 L81.683998,81.635998 C80.3906647,87.5453311 78.3746647,92.8519977 75.6390648,97.5573309 L75.6390648,97.5573309 L75.6390648,97.5573309 C72.8926648,102.251997 69.3775983,106.195997 65.0937317,109.390664 L65.0937317,109.390664 L65.0937317,109.390664 C60.8093318,112.594664 55.6453319,114.755997 49.6010654,115.87333 L49.6010654,115.87333 L49.6010654,115.87333 C55.2739986,114.68133 60.1306652,112.482664 64.1707984,109.278664 L64.1707984,109.278664 L64.1707984,109.278664 C68.221865,106.085331 71.5302649,102.155997 74.0963981,97.4933309 L74.0963981,97.4933309 L74.0963981,97.4933309 C76.6734647,92.8306643 78.5546647,87.5826645 79.7426647,81.747998 L79.7426647,81.747998 L79.7426647,81.747998 C80.9413313,75.9039981 81.539998,69.7666649 81.539998,63.3359984 L81.539998,63.3359984 L81.539998,63.3359984 C81.539998,58.8754652 81.259998,54.4786653 80.6973313,50.1458654 L80.6973313,50.1458654 L80.6973313,50.1458654 C80.135998,45.8021322 79.259998,41.634399 78.0733314,37.6421324 L78.0733314,37.6421324 L78.0733314,37.6421324 C76.8745314,33.6609325 75.3478648,29.8707993 73.4921315,26.2723993 L73.4921315,26.2723993 L73.4921315,26.2723993 C71.6254649,22.6849328 69.4145316,19.4005328 66.8593317,16.4197329 L66.8593317,16.4197329 L66.8593317,16.4197329 C64.3035984,13.4494663 61.3770651,10.8306664 58.0791985,8.56306645 L58.0791985,8.56306645 L58.0791985,8.56306645 C54.7811986,6.30626651 51.0802654,4.48026655 46.9765322,3.08546659 L46.9765322,3.08546659 Z M47.4218655,2.81399993 L47.4218655,2.81399993 L47.4218655,2.81399993 C52.0135987,4.0067999 56.1437319,5.67239986 59.8125318,7.81253314 L59.8125318,7.81253314 L59.8125318,7.81253314 C63.4817317,9.94173308 66.753065,12.459333 69.6265316,15.3655996 L69.6265316,15.3655996 L69.6265316,15.3655996 C72.5005315,18.2614662 74.9603981,21.4978661 77.0066647,25.075066 L77.0066647,25.075066 L77.0066647,25.075066 C79.0533314,28.6515993 80.7506646,32.4578659 82.0973313,36.4926658 L82.0973313,36.4926658 L82.0973313,36.4926658 C83.4333312,40.537999 84.4186646,44.7587989 85.0559979,49.1557321 L85.0559979,49.1557321 L85.0559979,49.1557321 C85.6919979,53.5526653 86.0093312,58.0343985 86.0093312,62.6013318 L86.0093312,62.6013318 L86.0093312,62.6013318 C86.0093312,67.0199983 85.7133312,71.3053316 85.1186645,75.4559981 L85.1186645,75.4559981 L85.1186645,75.4559981 C84.5253312,79.607998 83.6133312,83.5373312 82.3839979,87.2413312 L82.3839979,87.2413312 L82.3839979,87.2413312 C81.1426646,90.9466644 79.5626647,94.401331 77.6426647,97.6053309 L77.6426647,97.6053309 L77.6426647,97.6053309 C75.7239981,100.809331 73.4442648,103.651997 70.8035982,106.133331 L70.8035982,106.133331 L70.8035982,106.133331 C68.152665,108.623997 65.120265,110.721331 61.7057318,112.423997 L61.7057318,112.423997 L61.7057318,112.423997 C58.3015985,114.127997 54.4947986,115.351997 50.2849321,116.09733 L50.2849321,116.09733 L50.2849321,116.09733 C54.2718653,115.319997 57.8666652,114.06933 61.0693318,112.345331 L61.0693318,112.345331 L61.0693318,112.345331 C64.2718651,110.619997 67.1245317,108.511997 69.6265316,106.021331 L69.6265316,106.021331 L69.6265316,106.021331 C72.1187982,103.539997 74.2713315,100.718664 76.0849314,97.5573309 L76.0849314,97.5573309 L76.0849314,97.5573309 C77.8973314,94.385331 79.3773313,90.9573311 80.5226647,87.2733312 L80.5226647,87.2733312 L80.5226647,87.2733312 C81.6786646,83.5906646 82.5373313,79.6986647 83.0999979,75.5999981 L83.0999979,75.5999981 L83.0999979,75.5999981 C83.6613312,71.5013315 83.9426646,67.2799983 83.9426646,62.9373318 L83.9426646,62.9373318 L83.9426646,62.9373318 C83.9426646,58.4125319 83.6453312,53.967732 83.0519979,49.6030654 L83.0519979,49.6030654 L83.0519979,49.6030654 C82.4466646,45.2489322 81.5146646,41.0650656 80.251998,37.0515991 L80.251998,37.0515991 L80.251998,37.0515991 C78.979998,33.0483992 77.3786647,29.2530659 75.4483981,25.6655994 L75.4483981,25.6655994 L75.4483981,25.6655994 C73.5078648,22.0671994 71.1750649,18.7989329 68.449465,15.8609329 L68.449465,15.8609329 L68.449465,15.8609329 C65.7245317,12.9223997 62.6229318,10.3406664 59.1447985,8.1155998 L59.1447985,8.1155998 L59.1447985,8.1155998 C55.6557319,5.89066652 51.7483987,4.12346656 47.4218655,2.81399993 L47.4218655,2.81399993 Z M47.8671988,2.5906666 L47.8671988,2.5906666 L47.8671988,2.5906666 C52.6811987,3.67653324 57.0291986,5.26826653 60.9103985,7.36506648 L60.9103985,7.36506648 L60.9103985,7.36506648 C64.780665,9.4625331 68.216665,11.9483997 71.2171982,14.822933 L71.2171982,14.822933 L71.2171982,14.822933 C74.2182648,17.7078662 76.8109314,20.9281328 78.9946647,24.4838661 L78.9946647,24.4838661 L78.9946647,24.4838661 C81.1693313,28.0395993 82.9559979,31.8401325 84.3559979,35.8859991 L84.3559979,35.8859991 L84.3559979,35.8859991 C85.7559979,39.9202657 86.7893312,44.1682656 87.4573311,48.6286655 L87.4573311,48.6286655 L87.4573311,48.6286655 C88.1359978,53.0786653 88.4759978,57.6245319 88.4759978,62.2666651 L88.4759978,62.2666651 L88.4759978,62.2666651 C88.4759978,66.7159983 88.1679978,71.0386649 87.5533311,75.2333315 L87.5533311,75.2333315 L87.5533311,75.2333315 C86.9386645,79.427998 85.9786645,83.4039979 84.6733312,87.1613312 L84.6733312,87.1613312 L84.6733312,87.1613312 C83.3693312,90.9199977 81.7093313,94.4119976 79.6946647,97.6373309 L79.6946647,97.6373309 L79.6946647,97.6373309 C77.6813314,100.851997 75.2838648,103.721331 72.5057315,106.243997 L72.5057315,106.243997 L72.5057315,106.243997 C69.7275983,108.778664 66.5515983,110.902664 62.9781318,112.615997 L62.9781318,112.615997 L62.9781318,112.615997 C59.3937318,114.339997 55.3854653,115.59733 50.9530654,116.38533 L50.9530654,116.38533 L50.9530654,116.38533 C57.2521319,115.18133 62.6385318,112.935997 67.1135983,109.645331 L67.1135983,109.645331 L67.1135983,109.645331 C71.5885315,106.355997 75.2521315,102.326664 78.1053314,97.5573309 L78.1053314,97.5573309 L78.1053314,97.5573309 C80.9573313,92.777331 83.0519979,87.4066645 84.3879979,81.4453313 L84.3879979,81.4453313 L84.3879979,81.4453313 C85.7346645,75.4719981 86.4079978,69.1906649 86.4079978,62.6013318 L86.4079978,62.6013318 L86.4079978,62.6013318 C86.4079978,55.7562653 85.6813312,49.1130654 84.2279979,42.6723989 L84.2279979,42.6723989 L84.2279979,42.6723989 C82.7653313,36.2317324 80.4906647,30.3442659 77.4053314,25.0109327 L77.4053314,25.0109327 L77.4053314,25.0109327 C74.3083981,19.6770662 70.3265316,15.067733 65.4593317,11.1817331 L65.4593317,11.1817331 L65.4593317,11.1817331 C60.5921318,7.28546648 54.728132,4.42186656 47.8671988,2.5906666 L47.8671988,2.5906666 Z M48.3759988,2.30306661 L48.3759988,2.30306661 L48.3759988,2.30306661 C53.4130653,3.31453325 57.9625319,4.84213321 62.0234651,6.88639983 L62.0234651,6.88639983 L62.0234651,6.88639983 C66.0849317,8.91973311 69.6906649,11.3682664 72.8395982,14.231733 L72.8395982,14.231733 L72.8395982,14.231733 C75.9890648,17.0958662 78.703998,20.3051995 80.983998,23.8609327 L80.983998,23.8609327 L80.983998,23.8609327 C83.2533313,27.416666 85.1239979,31.2281326 86.5986645,35.2947991 L86.5986645,35.2947991 L86.5986645,35.2947991 C88.0719978,39.3510657 89.1546644,43.6250656 89.8426644,48.1177321 L89.8426644,48.1177321 L89.8426644,48.1177321 C90.5333311,52.6103987 90.8773311,57.1931986 90.8773311,61.8666651 L90.8773311,61.8666651 L90.8773311,61.8666651 C90.8773311,66.3599983 90.5479977,70.7293316 89.8906644,74.9773315 L89.8906644,74.9773315 L89.8906644,74.9773315 C89.2439978,79.2253314 88.2479978,83.2493313 86.9013312,87.0506645 L86.9013312,87.0506645 L86.9013312,87.0506645 C85.5639979,90.8506644 83.8413312,94.3906643 81.7306646,97.6693309 L81.7306646,97.6693309 L81.7306646,97.6693309 C79.6213313,100.937331 77.1133314,103.843997 74.2078648,106.387997 L74.2078648,106.387997 L74.2078648,106.387997 C71.3021316,108.931997 67.9775983,111.077331 64.2343984,112.823997 L64.2343984,112.823997 L64.2343984,112.823997 C60.4806652,114.558664 56.2921319,115.819997 51.6687987,116.607997 L51.6687987,116.607997 L51.6687987,116.607997 C58.2750652,115.415997 63.9270651,113.158664 68.6245316,109.837331 L68.6245316,109.837331 L68.6245316,109.837331 C73.3223982,106.526664 77.1613314,102.459997 80.139998,97.6373309 L80.139998,97.6373309 L80.139998,97.6373309 C83.1199979,92.8039977 85.3106645,87.3639978 86.7093312,81.3173313 L86.7093312,81.3173313 L86.7093312,81.3173313 C88.1093311,75.2813315 88.8093311,68.9306649 88.8093311,62.2666651 L88.8093311,62.2666651 L88.8093311,62.2666651 C88.8093311,57.6245319 88.4759978,53.0843987 87.8066645,48.6447988 L87.8066645,48.6447988 L87.8066645,48.6447988 C87.1279978,44.2161322 86.0999978,39.9682657 84.7213312,35.9015991 L84.7213312,35.9015991 L84.7213312,35.9015991 C83.3426646,31.8453325 81.571998,28.0291993 79.4093313,24.4521327 L79.4093313,24.4521327 L79.4093313,24.4521327 C77.2453314,20.8750661 74.6635981,17.6385329 71.6630649,14.7426663 L71.6630649,14.7426663 L71.6630649,14.7426663 C68.6619983,11.8363997 65.2311984,9.31879977 61.3713318,7.18959982 L61.3713318,7.18959982 L61.3713318,7.18959982 C57.5223986,5.06039987 53.1906653,3.43173325 48.3759988,2.30306661 L48.3759988,2.30306661 Z M48.8854654,2.03173328 L48.8854654,2.03173328 L48.8854654,2.03173328 C54.1343986,2.96879993 58.8849319,4.43746656 63.1369318,6.43906651 L63.1369318,6.43906651 L63.1369318,6.43906651 C67.3895983,8.44066646 71.1645316,10.8521331 74.4625315,13.672933 L74.4625315,13.672933 L74.4625315,13.672933 C77.7599981,16.5046663 80.5906647,19.6983995 82.9559979,23.2541328 L82.9559979,23.2541328 L82.9559979,23.2541328 C85.3306645,26.809866 87.2933312,30.6265326 88.8413311,34.7041325 L88.8413311,34.7041325 L88.8413311,34.7041325 C90.3786644,38.781199 91.513331,43.0822656 92.245331,47.6067988 L92.245331,47.6067988 L92.245331,47.6067988 C92.977331,52.142132 93.3426643,56.7677319 93.3426643,61.4839985 L93.3426643,61.4839985 L93.3426643,61.4839985 C93.3426643,68.3293316 92.569331,74.8493315 91.0199977,81.0453313 L91.0199977,81.0453313 L91.0199977,81.0453313 C89.4719978,87.2413312 87.0493312,92.7986643 83.7519979,97.7173309 L83.7519979,97.7173309 L83.7519979,97.7173309 C80.4533313,102.635997 76.2015981,106.771997 70.9947982,110.125331 L70.9947982,110.125331 L70.9947982,110.125331 C65.7989317,113.478664 59.5635985,115.735997 52.2890654,116.895997 L52.2890654,116.895997 L52.2890654,116.895997 C56.9125319,116.06533 61.0797318,114.76133 64.7911984,112.983997 L64.7911984,112.983997 L64.7911984,112.983997 C68.502665,111.205331 71.8005315,109.027997 74.6849315,106.451997 L74.6849315,106.451997 L74.6849315,106.451997 C77.5799981,103.865331 80.0666647,100.937331 82.1453313,97.6693309 L82.1453313,97.6693309 L82.1453313,97.6693309 C84.2333312,94.3906643 85.9519979,90.8506644 87.2986645,87.0506645 L87.2986645,87.0506645 L87.2986645,87.0506645 C88.6346645,83.2493313 89.6306644,79.2253314 90.2893311,74.9773315 L90.2893311,74.9773315 L90.2893311,74.9773315 C90.9359977,70.7293316 91.2586644,66.3599983 91.2586644,61.8666651 L91.2586644,61.8666651 L91.2586644,61.8666651 C91.2586644,54.8302653 90.4693311,48.0645321 88.8893311,41.570799 L88.8893311,41.570799 L88.8893311,41.570799 C87.3093312,35.0765325 84.8119979,29.1630659 81.3973313,23.8291994 L81.3973313,23.8291994 L81.3973313,23.8291994 C77.9826647,18.5062662 73.5926648,13.9442663 68.227065,10.1437331 L68.227065,10.1437331 L68.227065,10.1437331 C62.8614651,6.34319984 56.4139986,3.63906658 48.8854654,2.03173328 L48.8854654,2.03173328 Z M49.4421321,1.74426662 L49.4421321,1.74426662 L49.4421321,1.74426662 C57.6811986,3.05359992 64.7275984,5.54479986 70.5811982,9.2177331 L70.5811982,9.2177331 L70.5811982,9.2177331 C76.4343981,12.879733 81.2226646,17.3619996 84.9439979,22.6635994 L84.9439979,22.6635994 L84.9439979,22.6635994 C88.6773311,27.954666 91.4079977,33.8947992 93.1359977,40.4849323 L93.1359977,40.4849323 L93.1359977,40.4849323 C94.8746643,47.0745322 95.7453309,53.962532 95.7453309,61.1479985 L95.7453309,61.1479985 L95.7453309,61.1479985 C95.7453309,68.0679983 94.9439976,74.6519981 93.3426643,80.9026646 L93.3426643,80.9026646 L93.3426643,80.9026646 C91.7306644,87.1506645 89.2026644,92.7666643 85.7559979,97.7493309 L85.7559979,97.7493309 L85.7559979,97.7493309 C82.3093313,102.721331 77.8933314,106.893331 72.5057315,110.269331 L72.5057315,110.269331 L72.5057315,110.269331 C67.1187983,113.63333 60.6401318,115.915997 53.0687987,117.118664 L53.0687987,117.118664 L53.0687987,117.118664 C60.2687985,115.883997 66.4401317,113.57333 71.5833315,110.187997 L71.5833315,110.187997 L71.5833315,110.187997 C76.7259981,106.793331 80.9306646,102.625331 84.1973312,97.6853309 L84.1973312,97.6853309 L84.1973312,97.6853309 C87.4519978,92.745331 89.8493311,87.1773312 91.3866644,80.9813313 L91.3866644,80.9813313 L91.3866644,80.9813313 C92.913331,74.7959981 93.677331,68.2973316 93.677331,61.4839985 L93.677331,61.4839985 L93.677331,61.4839985 C93.677331,54.3723986 92.8439977,47.5426655 91.1799977,40.9958656 L91.1799977,40.9958656 L91.1799977,40.9958656 C89.5253311,34.4379991 86.9173312,28.502666 83.3533312,23.1906661 L83.3533312,23.1906661 L83.3533312,23.1906661 C79.7906647,17.8781329 75.2150648,13.3483997 69.6265316,9.60106643 L69.6265316,9.60106643 L69.6265316,9.60106643 C64.0385317,5.86399985 57.3103986,3.24533325 49.4421321,1.74426662 L49.4421321,1.74426662 Z M49.9983988,1.4729333 L49.9983988,1.4729333 L49.9983988,1.4729333 C55.7035986,2.24999994 60.8573318,3.59693324 65.4593317,5.51306653 L65.4593317,5.51306653 L65.4593317,5.51306653 C70.0614649,7.41879981 74.1546648,9.75519976 77.7386647,12.5234664 L77.7386647,12.5234664 L77.7386647,12.5234664 C81.311998,15.2911996 84.3879979,18.4635995 86.9639978,22.0406661 L86.9639978,22.0406661 L86.9639978,22.0406661 C89.5306644,25.6177327 91.6466644,29.4609326 93.3106643,33.5702658 L93.3106643,33.5702658 L93.3106643,33.5702658 C94.965331,37.6901324 96.1946643,42.0551989 97.0013309,46.6645322 L97.0013309,46.6645322 L97.0013309,46.6645322 C97.7959976,51.2635987 98.1946642,55.9797319 98.1946642,60.8133318 L98.1946642,60.8133318 L98.1946642,60.8133318 C98.1946642,67.7639983 97.3559976,74.4079981 95.6813309,80.7426646 L95.6813309,80.7426646 L95.6813309,80.7426646 C94.005331,87.0653312 91.381331,92.7346643 87.8066645,97.7493309 L87.8066645,97.7493309 L87.8066645,97.7493309 C84.2239979,102.762664 79.6266647,106.989331 74.0166648,110.427997 L74.0166648,110.427997 L74.0166648,110.427997 C68.4073316,113.87733 61.6682651,116.198664 53.7999987,117.390664 L53.7999987,117.390664 L53.7999987,117.390664 C61.2973318,116.123997 67.718265,113.775997 73.0625315,110.347997 L73.0625315,110.347997 L73.0625315,110.347997 C78.4173314,106.919997 82.7973313,102.709331 86.2013312,97.7173309 L86.2013312,97.7173309 L86.2013312,97.7173309 C89.6159978,92.7239977 92.1239977,87.1026645 93.7239977,80.8546646 L93.7239977,80.8546646 L93.7239977,80.8546646 C95.325331,74.5946648 96.1266643,68.0253316 96.1266643,61.1479985 L96.1266643,61.1479985 L96.1266643,61.1479985 C96.1266643,56.3578653 95.7453309,51.6843987 94.981331,47.1275988 L94.981331,47.1275988 L94.981331,47.1275988 C94.217331,42.5817323 93.0359977,38.2541324 91.433331,34.1453325 L91.433331,34.1453325 L91.433331,34.1453325 C89.8333311,30.0250659 87.8026645,26.1765327 85.3426645,22.5994661 L85.3426645,22.5994661 L85.3426645,22.5994661 C82.8813313,19.0223995 79.9453313,15.8234663 76.5302648,13.002133 L76.5302648,13.002133 L76.5302648,13.002133 C73.1155982,10.1811997 69.2026649,7.78599981 64.7911984,5.81613319 L64.7911984,5.81613319 L64.7911984,5.81613319 C60.3693318,3.84693324 55.4385319,2.39893327 49.9983988,1.4729333 L49.9983988,1.4729333 Z M50.6187987,1.18546664 L50.6187987,1.18546664 L50.6187987,1.18546664 C56.5469319,1.89839995 61.8963985,3.18119992 66.668265,5.03386654 L66.668265,5.03386654 L66.668265,5.03386654 C71.4401315,6.88639983 75.6765314,9.19639977 79.3773313,11.964533 L79.3773313,11.964533 L79.3773313,11.964533 C83.0879979,14.7322663 86.2813312,17.8942662 88.9519978,21.4499995 L88.9519978,21.4499995 L88.9519978,21.4499995 C91.6146644,25.0057327 93.809331,28.8541326 95.5386643,32.9953325 L95.5386643,32.9953325 L95.5386643,32.9953325 C97.2773309,37.1259991 98.5546642,41.501599 99.3719975,46.1218655 L99.3719975,46.1218655 L99.3719975,46.1218655 C100.198664,50.7421321 100.611997,55.5062653 100.611997,60.4139985 L100.611997,60.4139985 L100.611997,60.4139985 C100.611997,67.482665 99.7426642,74.2106648 98.0026642,80.5986647 L98.0026642,80.5986647 L98.0026642,80.5986647 C96.2746643,86.9759978 93.5546643,92.7079977 89.8426644,97.7973309 L89.8426644,97.7973309 L89.8426644,97.7973309 C86.1319978,102.885331 81.3706646,107.165331 75.5598648,110.635997 L75.5598648,110.635997 L75.5598648,110.635997 C69.7379983,114.095997 62.7447984,116.42133 54.579732,117.614664 L54.579732,117.614664 L54.579732,117.614664 C62.3734651,116.347997 69.0489316,113.983997 74.6051981,110.523997 L74.6051981,110.523997 L74.6051981,110.523997 C80.1613313,107.053331 84.7106645,102.794664 88.2519978,97.7493309 L88.2519978,97.7493309 L88.2519978,97.7493309 C91.7946644,92.6919977 94.393331,87.0119978 96.0466643,80.7106646 L96.0466643,80.7106646 L96.0466643,80.7106646 C97.7119976,74.3973315 98.5439975,67.7639983 98.5439975,60.8133318 L98.5439975,60.8133318 L98.5439975,60.8133318 C98.5439975,55.9369319 98.1519975,51.2103987 97.3666642,46.6327988 L97.3666642,46.6327988 L97.3666642,46.6327988 C96.5826643,42.0442656 95.3573309,37.6849324 93.693331,33.5541325 L93.693331,33.5541325 L93.693331,33.5541325 C92.0386644,29.4130659 89.9226644,25.5535994 87.3466645,21.9765328 L87.3466645,21.9765328 L87.3466645,21.9765328 C84.7799979,18.4103995 81.7266646,15.2218663 78.183998,12.4114664 L78.183998,12.4114664 L78.183998,12.4114664 C74.6426648,9.60106643 70.5759982,7.23226649 65.9843984,5.30519987 L65.9843984,5.30519987 L65.9843984,5.30519987 C61.4030651,3.37866658 56.2817319,2.00519995 50.6187987,1.18546664 L50.6187987,1.18546664 Z M51.1754654,0.897866644 L51.1754654,0.897866644 L51.1754654,0.897866644 C57.3259986,1.57919996 62.8770651,2.81399993 67.8291983,4.60266655 L67.8291983,4.60266655 L67.8291983,4.60266655 C72.7921315,6.40213317 77.1933314,8.66933312 81.0306646,11.4051997 L81.0306646,11.4051997 L81.0306646,11.4051997 C84.8706645,14.1306663 88.1786645,17.2713329 90.9573311,20.8270661 L90.9573311,20.8270661 L90.9573311,20.8270661 C93.7346643,24.3827994 96.0199976,28.2417326 97.8119976,32.4046659 L97.8119976,32.4046659 L97.8119976,32.4046659 C99.6053308,36.5562658 100.923997,40.963599 101.773331,45.6265322 L101.773331,45.6265322 L101.773331,45.6265322 C102.631997,50.2791987 103.061331,55.0750653 103.061331,60.0145318 L103.061331,60.0145318 L103.061331,60.0145318 C103.061331,67.1693317 102.170664,73.9719982 100.389331,80.4226647 L100.389331,80.4226647 L100.389331,80.4226647 C98.5973309,86.8853312 95.7719976,92.6866643 91.9119977,97.8279976 L91.9119977,97.8279976 L91.9119977,97.8279976 C88.0519978,102.970664 83.1053313,107.293331 77.0706647,110.795997 L77.0706647,110.795997 L77.0706647,110.795997 C71.0265316,114.29733 63.7734651,116.666664 55.3114653,117.90133 L55.3114653,117.90133 L55.3114653,117.90133 C63.4021317,116.591997 70.3374649,114.186664 76.1166648,110.683997 L76.1166648,110.683997 L76.1166648,110.683997 C81.895998,107.181331 86.6306645,102.879997 90.3213311,97.7813309 L90.3213311,97.7813309 L90.3213311,97.7813309 C94.0106643,92.6706643 96.7093309,86.9226645 98.4173309,80.5346647 L98.4173309,80.5346647 L98.4173309,80.5346647 C100.134664,74.1573315 100.993331,67.450665 100.993331,60.4139985 L100.993331,60.4139985 L100.993331,60.4139985 C100.993331,55.5062653 100.585331,50.7421321 99.7693308,46.1218655 L99.7693308,46.1218655 L99.7693308,46.1218655 C98.9519975,41.501599 97.6746642,37.1150657 95.9359976,32.9635992 L95.9359976,32.9635992 L95.9359976,32.9635992 C94.2066643,28.8114659 92.0066644,24.9469327 89.3346644,21.3697328 L89.3346644,21.3697328 L89.3346644,21.3697328 C86.6733312,17.7931996 83.4973312,14.6202663 79.8066647,11.8526664 L79.8066647,11.8526664 L79.8066647,11.8526664 C76.1166648,9.08439977 71.8906649,6.7530665 67.1297317,4.85839988 L67.1297317,4.85839988 L67.1297317,4.85839988 C62.3791984,2.97399993 57.0609319,1.65359996 51.1754654,0.897866644 L51.1754654,0.897866644 Z M56.0431986,118.17333 L56.0431986,118.17333 L56.0431986,118.17333 C61.6311985,117.32133 66.6895983,115.947997 71.2171982,114.05333 L71.2171982,114.05333 L71.2171982,114.05333 C75.7453314,112.169331 79.763998,109.858664 83.2746646,107.122664 L83.2746646,107.122664 L83.2746646,107.122664 C86.7733312,104.386664 89.7906644,101.287997 92.325331,97.8279976 L92.325331,97.8279976 L92.325331,97.8279976 C94.8599976,94.369331 96.9479976,90.6266644 98.5919975,86.6026645 L98.5919975,86.6026645 L98.5919975,86.6026645 C100.235997,82.5786646 101.449331,78.3306647 102.234664,73.8599982 L102.234664,73.8599982 L102.234664,73.8599982 C103.007997,69.3879983 103.394664,64.7733317 103.394664,60.0145318 L103.394664,60.0145318 L103.394664,60.0145318 C103.394664,55.0750653 102.971997,50.2791987 102.122664,45.6265322 L102.122664,45.6265322 L102.122664,45.6265322 C101.263997,40.963599 99.9493308,36.5458658 98.1786642,32.3723992 L98.1786642,32.3723992 L98.1786642,32.3723992 C96.4066643,28.199466 94.1426643,24.3245327 91.3866644,20.7473328 L91.3866644,20.7473328 L91.3866644,20.7473328 C88.6186645,17.1702662 85.3266645,14.0083996 81.5093313,11.2614664 L81.5093313,11.2614664 L81.5093313,11.2614664 C77.6906647,8.51506645 73.3223982,6.22079984 68.4021316,4.37919989 L68.4021316,4.37919989 L68.4021316,4.37919989 C63.4817317,2.5478666 57.9625319,1.27599997 51.843732,0.562533319 L51.843732,0.562533319 L51.843732,0.562533319 C58.1849319,1.1693333 63.9166651,2.35106661 69.0379983,4.10786656 L69.0379983,4.10786656 L69.0379983,4.10786656 C74.1598648,5.86399985 78.7093314,8.0999998 82.6853313,10.8145331 L82.6853313,10.8145331 L82.6853313,10.8145331 C86.6519978,13.5291997 90.0719977,16.6645329 92.945331,20.2202662 L92.945331,20.2202662 L92.945331,20.2202662 C95.8186643,23.7759994 98.1839975,27.645866 100.038664,31.8297325 L100.038664,31.8297325 L100.038664,31.8297325 C101.905331,36.0239991 103.278664,40.463599 104.158664,45.1473322 L104.158664,45.1473322 L104.158664,45.1473322 C105.027997,49.8213321 105.462664,54.6650653 105.462664,59.6791985 L105.462664,59.6791985 L105.462664,59.6791985 C105.462664,64.4693317 105.054664,69.1333316 104.238664,73.6679982 L104.238664,73.6679982 L104.238664,73.6679982 C103.421331,78.1933314 102.154664,82.4826646 100.437331,86.5386645 L100.437331,86.5386645 L100.437331,86.5386645 C98.7186642,90.6053311 96.5453309,94.3906643 93.9159977,97.8933309 L93.9159977,97.8933309 L93.9159977,97.8933309 C91.2959977,101.383997 88.1466645,104.487997 84.4666646,107.202664 L84.4666646,107.202664 L84.4666646,107.202664 C80.7986646,109.917331 76.6041314,112.221331 71.8854649,114.11733 L71.8854649,114.11733 L71.8854649,114.11733 C67.177065,116.00133 61.8963985,117.35333 56.0431986,118.17333" id="path22"></path>
                                    </g>
                                </g>
                            </g>
                        </g>
                    </g>
                    <g id="textData">
                        <g id="Group">
                            <g id="g26-Clipped">
                                <g>
                                    <mask id="mask-4" fill="white">
                                        <use xlink:href="#path-3"></use>
                                    </mask>
                                    <g id="path-5"></g>
                                    <g id="g26" mask="url(#mask-4)" fill="#000000" fill-rule="nonzero">
                                        <path d="M7.39843982,1.73177329 L7.39843982,49.8697321 C9.12291977,50.0202654 11.2770797,50.0901321 13.210933,50.0901321 C17.1593329,50.0901321 20.3901328,49.6598654 22.9723994,48.9390654 C25.4849327,48.1483988 27.7879993,46.7067988 29.8619993,44.5447989 C31.9458659,42.3822656 33.6010658,39.639599 34.6781325,36.2562658 C35.8245324,32.7926658 36.4030658,28.9693326 36.4030658,24.5750661 C36.4030658,19.0291995 35.3958658,14.414533 33.4515992,10.8109331 C31.5869325,7.20729315 29.1442659,4.82499988 26.2729327,3.60363991 C23.4010661,2.38281327 19.7417328,1.73177329 15.2947996,1.73177329 L7.39843982,1.73177329 Z M0,0 L14.0687996,0 C18.3062662,0 21.6062661,0.140103996 23.9098661,0.430729323 C26.2729327,0.651041317 28.7155993,1.30156263 31.2978659,2.38281327 C33.9598658,3.46354658 36.2530658,5.04530654 38.1973324,7.13750649 C40.201599,9.14947977 41.7073323,11.7520797 42.8639989,14.8447996 C44.0103989,17.9478662 44.5786656,21.4015995 44.5786656,25.1551994 C44.5786656,30.4103992 43.5021322,34.9551991 41.4281323,38.9193324 C39.3442657,42.9530656 36.1833324,46.0562655 31.9458659,48.3583988 C27.7083993,50.7411987 21.7562661,51.892132 14.2182663,51.892132 C14.2182663,51.892132 11.7755197,51.892132 0,51.892132 L0,0 Z M67.701065,20.7609328 L76.5250648,42.5229323 L85.5781312,20.7609328 L67.701065,20.7609328 Z M90.0947977,9.5098931 C90.0947977,9.5098931 91.2417311,6.70677317 93.9734643,0 L102.089597,0 L80.113998,51.892132 L78.608798,51.892132 L57.2218652,0 L59.9437318,0 L67.1921317,19.0291995 L86.2161312,19.0291995 L90.0947977,9.5098931 Z M158.294663,51.892132 L153.917329,40.791199 C153.487996,39.4994657 152.90933,37.9781324 152.191996,36.3265324 L140.566663,8.28854646 L126.05933,42.0223989 L121.611997,51.892132 L114.07453,51.892132 L116.58693,45.9859989 C116.945864,45.3354655 117.304664,44.6145322 117.594264,43.7437322 C118.02293,42.7426656 118.311997,41.8718656 118.601064,41.2213323 L119.16933,40.1401323 L136.547997,0 L138.911997,0 L153.917329,35.8161324 L160.666663,51.892132 L158.294663,51.892132 Z M215.515995,51.892132 L198.785328,22.7030661 L181.983995,51.892132 L172.582662,51.892132 L192.393329,20.1103995 L192.393329,0 L199.791995,0 L199.791995,20.6109328 L218.666661,51.892132" id="path32"></path>
                                    </g>
                                </g>
                            </g>
                        </g>
                    </g>
                </g>
            </g>
        </g>
    </g>
</svg>